<?xml version="1.0" encoding="utf-8"?>
<!-- Generator: Adobe Illustrator 25.4.1, SVG Export Plug-In . SVG Version: 6.00 Build 0)  -->
<svg version="1.1" id="Layer_1" xmlns="http://www.w3.org/2000/svg" xmlns:xlink="http://www.w3.org/1999/xlink" x="0px" y="0px"
	 viewBox="0 0 385 112" enable-background="new 0 0 385 112" xml:space="preserve">
<g>
	<g>
		<path fill="#FFFFFF" d="M53.3,1.4v50.5H45v-36h-0.3c-0.3,1-0.6,2.1-1,3.1c-0.4,1-0.9,2.2-1.5,3.4L30.7,44.7h-8L11.3,22.5
			c-0.6-1.2-1.1-2.3-1.5-3.4C9.4,18,9.1,17,8.8,15.9H8.4v36H0.5V1.4h8.8l14.5,28.7c0.6,1.2,1.1,2.4,1.7,3.7c0.5,1.2,1,2.3,1.3,3.2
			h0.3c0.3-0.9,0.8-2,1.3-3.3c0.5-1.3,1.1-2.5,1.7-3.6L44.5,1.4H53.3z"/>
		<path fill="#FFFFFF" d="M96.1,1.4l-0.7,7.4H72.2v14h19.3v7.2H72.2v14.5h24.3v7.4H64V1.4H96.1z"/>
		<path fill="#FFFFFF" d="M140.6,17.6c0,3.6-1,6.6-3.1,9.1c-2,2.4-4.6,4-7.7,4.9l14,20.3h-9.7l-12.5-18.4h-9.1v18.4h-8.2V1.4h16.3
			c4.1,0,7.7,0.6,10.7,1.9c3,1.2,5.3,3.1,6.9,5.5C139.8,11.2,140.6,14.1,140.6,17.6z M132.3,17.6c0-2.2-0.5-4-1.6-5.4
			c-1-1.4-2.5-2.4-4.3-3c-1.8-0.7-3.9-1-6.3-1h-7.7V27h7.7c2.4,0,4.5-0.3,6.3-0.9c1.8-0.6,3.2-1.6,4.3-3
			C131.7,21.6,132.3,19.8,132.3,17.6z"/>
		<path fill="#FFFFFF" d="M190.4,48.8c-1.9,1.2-4.2,2.1-6.8,2.7c-2.7,0.6-5.5,0.9-8.5,0.9c-5.4,0-10.2-1.1-14.4-3.3
			c-4.1-2.2-7.3-5.3-9.6-9.2c-2.3-3.9-3.4-8.4-3.4-13.4c0-5,1.1-9.4,3.3-13.3c2.2-3.9,5.3-6.9,9.2-9.2c3.9-2.2,8.4-3.4,13.4-3.4
			c3.5,0,6.5,0.3,9.1,1c2.6,0.7,5,1.8,7.1,3.2l-2.7,7.6c-1.6-1.3-3.5-2.3-5.7-3.1c-2.2-0.7-4.7-1.1-7.3-1.1c-3.5,0-6.5,0.8-9.2,2.3
			c-2.7,1.5-4.8,3.7-6.3,6.4s-2.3,5.9-2.3,9.5c0,3.5,0.8,6.6,2.4,9.4c1.6,2.8,3.9,4.9,6.8,6.5c2.9,1.6,6.2,2.3,9.9,2.3
			c2.8,0,5.6-0.4,8.2-1.1c2.7-0.7,4.9-1.8,6.6-3.1L190.4,48.8z"/>
		<path fill="#FFFFFF" d="M242.1,51.9h-8.8l-5.4-14h-20.1l-5.4,14h-8.4l19.2-50.5h9.5L242.1,51.9z M225.7,31.2l-6-15.3
			c-0.4-1.1-0.7-2.1-1-3c-0.3-0.9-0.5-1.8-0.7-2.7h-0.3c-0.2,0.9-0.5,1.8-0.7,2.7c-0.3,0.9-0.6,1.9-1,3l-6,15.3H225.7z"/>
		<path fill="#FFFFFF" d="M292.9,26.7c0,5-1.1,9.5-3.4,13.3c-2.3,3.8-5.5,6.7-9.7,8.8c-4.2,2.1-9.2,3.1-15.1,3.1h-16.4V1.4h16.4
			c5.8,0,10.9,1,15.1,3.1c4.2,2.1,7.4,5,9.7,8.8C291.8,17.1,292.9,21.5,292.9,26.7z M284.2,26.7c0-3.8-0.8-7.1-2.4-9.8
			c-1.6-2.7-3.8-4.8-6.8-6.3c-2.9-1.4-6.4-2.2-10.3-2.2h-8.2v36.4h8.2c4,0,7.5-0.7,10.4-2.2c2.9-1.4,5.2-3.5,6.7-6.3
			C283.4,33.6,284.2,30.4,284.2,26.7z"/>
		<path fill="#FFFFFF" d="M323.8,0.8c5.1,0,9.6,1.1,13.5,3.4c3.9,2.2,7,5.3,9.2,9.2c2.2,3.9,3.4,8.3,3.4,13.3
			c0,4.9-1.1,9.4-3.4,13.3c-2.2,3.9-5.3,7-9.2,9.2c-3.9,2.2-8.4,3.4-13.5,3.4c-5,0-9.5-1.1-13.4-3.4c-3.9-2.2-7-5.3-9.2-9.2
			c-2.2-3.9-3.4-8.3-3.4-13.3c0-5,1.1-9.4,3.4-13.3c2.2-3.9,5.3-6.9,9.2-9.2C314.2,1.9,318.7,0.8,323.8,0.8z M323.8,45.1
			c3.5,0,6.5-0.8,9.1-2.4s4.7-3.8,6.2-6.6c1.5-2.8,2.2-5.9,2.2-9.4c0-3.5-0.7-6.7-2.2-9.4c-1.5-2.8-3.5-5-6.2-6.6s-5.7-2.4-9.1-2.4
			c-3.4,0-6.4,0.8-9.1,2.4s-4.7,3.8-6.2,6.5c-1.5,2.8-2.2,5.9-2.2,9.5c0,3.5,0.7,6.6,2.2,9.4c1.5,2.8,3.5,5,6.2,6.6
			S320.4,45.1,323.8,45.1z"/>
	</g>
</g>
<g>
	<g>
		<path fill="#FFFFFF" d="M42.6,105.5c-1.9,1.2-4.2,2.1-6.8,2.7c-2.7,0.6-5.5,0.9-8.5,0.9c-5.4,0-10.2-1.1-14.4-3.3
			c-4.1-2.2-7.3-5.3-9.6-9.2c-2.3-3.9-3.4-8.4-3.4-13.4c0-5,1.1-9.4,3.3-13.3c2.2-3.9,5.3-6.9,9.2-9.2c3.9-2.2,8.4-3.4,13.4-3.4
			c3.5,0,6.5,0.3,9.1,1c2.6,0.7,5,1.8,7.1,3.2l-2.7,7.6c-1.6-1.3-3.5-2.3-5.7-3.1c-2.2-0.7-4.7-1.1-7.3-1.1c-3.5,0-6.5,0.8-9.2,2.3
			c-2.7,1.5-4.8,3.7-6.3,6.4s-2.3,5.9-2.3,9.5c0,3.5,0.8,6.6,2.4,9.4c1.6,2.8,3.9,4.9,6.8,6.5c2.9,1.6,6.2,2.3,9.9,2.3
			c2.8,0,5.6-0.4,8.2-1.1c2.7-0.7,4.9-1.8,6.6-3.1L42.6,105.5z"/>
		<path fill="#FFFFFF" d="M73.8,57.5c5.1,0,9.6,1.1,13.5,3.4c3.9,2.2,7,5.3,9.2,9.2c2.2,3.9,3.4,8.3,3.4,13.3
			c0,4.9-1.1,9.4-3.4,13.3c-2.2,3.9-5.3,7-9.2,9.2c-3.9,2.2-8.4,3.4-13.5,3.4c-5,0-9.5-1.1-13.4-3.4c-3.9-2.2-7-5.3-9.2-9.2
			c-2.2-3.9-3.4-8.3-3.4-13.3c0-5,1.1-9.4,3.4-13.3c2.2-3.9,5.3-6.9,9.2-9.2C64.3,58.6,68.7,57.5,73.8,57.5z M73.8,101.8
			c3.5,0,6.5-0.8,9.1-2.4s4.7-3.8,6.2-6.6c1.5-2.8,2.2-5.9,2.2-9.4c0-3.5-0.7-6.7-2.2-9.4c-1.5-2.8-3.5-5-6.2-6.6s-5.7-2.4-9.1-2.4
			c-3.4,0-6.4,0.8-9.1,2.4c-2.6,1.6-4.7,3.8-6.2,6.5c-1.5,2.8-2.2,5.9-2.2,9.5c0,3.5,0.7,6.6,2.2,9.4c1.5,2.8,3.5,5,6.2,6.6
			C67.4,101,70.4,101.8,73.8,101.8z"/>
		<path fill="#FFFFFF" d="M150,58.1v50.5h-7.3l-23-32.1c-0.7-1-1.4-1.9-2-2.9c-0.6-1-1.2-1.9-1.6-2.8h-0.3v37.8h-7.9V58.1h8.1
			L138,89c0.7,1,1.4,1.9,2,2.9c0.6,1,1.2,1.9,1.6,2.7h0.3V58.1H150z"/>
		<path fill="#FFFFFF" d="M205.2,83.3c0,5-1.1,9.5-3.4,13.3c-2.3,3.8-5.5,6.7-9.7,8.8c-4.2,2.1-9.2,3.1-15.1,3.1h-16.4V58.1H177
			c5.8,0,10.9,1,15.1,3.1c4.2,2.1,7.4,5,9.7,8.8C204,73.8,205.2,78.2,205.2,83.3z M196.5,83.3c0-3.8-0.8-7.1-2.4-9.8
			c-1.6-2.7-3.8-4.8-6.8-6.3c-2.9-1.4-6.4-2.2-10.3-2.2h-8.2v36.4h8.2c4,0,7.5-0.7,10.4-2.2c2.9-1.4,5.2-3.5,6.7-6.3
			C195.7,90.3,196.5,87.1,196.5,83.3z"/>
		<path fill="#FFFFFF" d="M245.1,58.1l-0.7,7.4h-23.2v14h19.3v7.2h-19.3v14.5h24.3v7.4h-32.6V58.1H245.1z"/>
		<path fill="#FFFFFF" d="M253.2,108.6V58.1h8.2v43h22.3l-0.6,7.5H253.2z"/>
		<path fill="#FFFFFF" d="M290.6,108.6V58.1h8.2v43h22.3l-0.6,7.5H290.6z"/>
	</g>
</g>
<path fill="#FFFFFF" d="M329,108l1-43c0,0,28-7,28-35s0-28,0-28h26v106H329z"/>
</svg>
