<?xml version="1.0" encoding="utf-8"?>
<!-- Generator: Adobe Illustrator 25.4.1, SVG Export Plug-In . SVG Version: 6.00 Build 0)  -->
<svg version="1.1" xmlns="http://www.w3.org/2000/svg" xmlns:xlink="http://www.w3.org/1999/xlink" x="0px" y="0px"
	 viewBox="0 0 1141 1678" enable-background="new 0 0 1141 1678" xml:space="preserve">
<g id="Layer_1">
	<g>
		<defs>
			<rect id="SVGID_1_" width="1141" height="1678"/>
		</defs>
		<clipPath id="SVGID_00000180335982679680796700000016145735115881791886_">
			<use xlink:href="#SVGID_1_"  overflow="visible"/>
		</clipPath>
		<path clip-path="url(#SVGID_00000180335982679680796700000016145735115881791886_)" fill="#FFFFFF" d="M1080.4,1931.9H58.2
			c-33.6,0-60.9-27.3-60.9-60.9V-122.2c0-33.6,27.3-60.9,60.9-60.9h1022.2c33.6,0,60.9,27.3,60.9,60.9v1993.2
			C1141.3,1904.6,1114,1931.9,1080.4,1931.9"/>
		
			<path clip-path="url(#SVGID_00000180335982679680796700000016145735115881791886_)" fill="none" stroke="#000000" stroke-miterlimit="10" d="
			M1080.4,1931.9H58.2c-33.6,0-60.9-27.3-60.9-60.9V-122.2c0-33.6,27.3-60.9,60.9-60.9h1022.2c33.6,0,60.9,27.3,60.9,60.9v1993.2
			C1141.3,1904.6,1114,1931.9,1080.4,1931.9z"/>
		
			<rect x="595" y="3" clip-path="url(#SVGID_00000180335982679680796700000016145735115881791886_)" fill="#FFC9B1" width="547" height="458"/>
		
			<rect x="595" y="458" clip-path="url(#SVGID_00000180335982679680796700000016145735115881791886_)" fill="#00492B" width="547" height="470"/>
		
			<rect x="-4" y="927" clip-path="url(#SVGID_00000180335982679680796700000016145735115881791886_)" fill="#EAAEEC" width="199" height="749"/>
		
			<rect x="196.5" y="1479" clip-path="url(#SVGID_00000180335982679680796700000016145735115881791886_)" fill="#F7EFE2" width="173.5" height="196.5"/>
		
			<rect x="196.5" y="1277" clip-path="url(#SVGID_00000180335982679680796700000016145735115881791886_)" fill="#F7EFE2" width="173.5" height="196.5"/>
		
			<rect x="855" y="929" clip-path="url(#SVGID_00000180335982679680796700000016145735115881791886_)" fill="#B2D8D8" width="286" height="747"/>
	</g>
	<g>
		<defs>
			<rect id="SVGID_00000067945964314200331860000010423150786905702052_" width="1141" height="1678"/>
		</defs>
		<clipPath id="SVGID_00000005962215676045421550000017195829161674853795_">
			<use xlink:href="#SVGID_00000067945964314200331860000010423150786905702052_"  overflow="visible"/>
		</clipPath>
		<path clip-path="url(#SVGID_00000005962215676045421550000017195829161674853795_)" d="M54.6,1930h1027.8
			c31.8,0,57.6-25.8,57.6-57.6V1676H-3v196.4C-3,1904.2,22.8,1930,54.6,1930"/>
	</g>
	<g>
		<defs>
			<rect id="SVGID_00000090280803664702992960000000262068225853289380_" width="1141" height="1678"/>
		</defs>
		<clipPath id="SVGID_00000056402804003185489590000012278676818452068534_">
			<use xlink:href="#SVGID_00000090280803664702992960000000262068225853289380_"  overflow="visible"/>
		</clipPath>
		<path clip-path="url(#SVGID_00000056402804003185489590000012278676818452068534_)" d="M1082.7-185.1H54.9
			c-31.8,0-57.6,25.8-57.6,57.6V2h1143v-129.5C1140.3-159.4,1114.5-185.1,1082.7-185.1"/>
	</g>
	<rect y="2.5" fill="#F4B609" width="594.5" height="833"/>
	<rect y="4" fill="#FFC9B1" width="147.9" height="66.6"/>
	<rect x="158.1" y="4" fill="#FFC9B1" width="149.9" height="66.6"/>
	<rect x="318.1" y="4" fill="#FFC9B1" width="149.9" height="66.6"/>
	<rect x="1069.7" y="322.4" fill="#FE5001" width="71.3" height="135.6"/>
	<rect x="1069.7" y="162.3" fill="#FE5001" width="71.3" height="149.9"/>
	<rect x="1069.7" y="2.3" fill="#FE5001" width="71.3" height="149.9"/>
	<rect y="390.1" fill="#FFC9B1" width="63.4" height="149.9"/>
	<rect y="548.1" fill="#FFC9B1" width="63.4" height="284.9"/>
	<rect y="230" fill="#FFC9B1" width="63.4" height="149.9"/>
	<rect y="79" fill="#FFC9B1" width="63.4" height="140.9"/>
	<rect x="401" y="248" fill="#FFC9B1" width="183" height="310"/>
	<rect y="836" fill="#EAAEEC" width="312" height="91"/>
	<g>
		<defs>
			<rect id="SVGID_00000028284019361953760900000013231099233149023112_" width="1141" height="1678"/>
		</defs>
		<clipPath id="SVGID_00000018939413215285754040000016223367828919717534_">
			<use xlink:href="#SVGID_00000028284019361953760900000013231099233149023112_"  overflow="visible"/>
		</clipPath>
		<path clip-path="url(#SVGID_00000018939413215285754040000016223367828919717534_)" fill="#F7EFE2" d="M9,687.8
			c0,10.8,8.7,19.5,19.5,19.5S48,698.6,48,687.8c0-10.8-8.7-19.5-19.5-19.5S9,677,9,687.8"/>
	</g>
	<g>
		<g>
			<path d="M32.4,694.6h-5.2v-10.9l-4,1.6v-4.6l4-1.8h5.2V694.6z"/>
		</g>
	</g>
	<g>
		<defs>
			<rect id="SVGID_00000080179356015187042850000017367210634784286107_" width="1141" height="1678"/>
		</defs>
		<clipPath id="SVGID_00000031166478132314194940000003221434452477081492_">
			<use xlink:href="#SVGID_00000080179356015187042850000017367210634784286107_"  overflow="visible"/>
		</clipPath>
		<path clip-path="url(#SVGID_00000031166478132314194940000003221434452477081492_)" fill="#F7EFE2" d="M9,474.5
			c0,10.8,8.7,19.5,19.5,19.5S48,485.3,48,474.5c0-10.8-8.7-19.5-19.5-19.5S9,463.7,9,474.5"/>
	</g>
	<g>
		<g>
			<path d="M37,470.5c0,0.8-0.2,1.5-0.6,2.3c-0.4,0.7-1,1.4-1.9,2c-0.9,0.6-2,1.3-3.4,1.8h6.8l-0.4,4.7H23.6v-4.4
				c1.6-0.8,2.9-1.4,4-2c1-0.5,1.8-1,2.4-1.4c0.5-0.4,0.9-0.7,1.1-1.1c0.2-0.3,0.3-0.6,0.3-0.9c0-0.5-0.2-0.9-0.6-1.2
				c-0.4-0.3-1.1-0.4-2.2-0.4c-0.5,0-1.1,0-1.6,0.1c-0.5,0.1-1,0.2-1.5,0.4s-0.9,0.3-1.3,0.5l-0.2-4.6c0.8-0.4,1.7-0.6,2.7-0.8
				c1-0.2,2.1-0.2,3.2-0.2c2.4,0,4.2,0.5,5.4,1.4S37,468.9,37,470.5z"/>
		</g>
	</g>
	<g>
		<defs>
			<rect id="SVGID_00000103248093424894263850000010350971260133961889_" width="1141" height="1678"/>
		</defs>
		<clipPath id="SVGID_00000114071720420603873240000003921874858075900044_">
			<use xlink:href="#SVGID_00000103248093424894263850000010350971260133961889_"  overflow="visible"/>
		</clipPath>
		<path clip-path="url(#SVGID_00000114071720420603873240000003921874858075900044_)" fill="#F7EFE2" d="M9,301.5
			c0,10.8,8.7,19.5,19.5,19.5S48,312.3,48,301.5c0-10.8-8.7-19.5-19.5-19.5S9,290.7,9,301.5"/>
	</g>
	<g>
		<g>
			<path d="M34.9,292.6v4.4l-4,3c1.4,0.3,2.5,0.9,3.4,1.7c0.9,0.9,1.3,2,1.3,3.5c0,1.2-0.3,2.3-1,3.2c-0.7,1-1.6,1.7-2.8,2.3
				c-1.2,0.5-2.7,0.8-4.4,0.8c-1.3,0-2.5-0.1-3.6-0.3c-1-0.2-1.8-0.5-2.4-0.8l0.4-4.8c0.6,0.4,1.3,0.7,2.2,0.9
				c0.9,0.2,1.9,0.3,3,0.3c1,0,1.8-0.1,2.3-0.4c0.5-0.3,0.7-0.8,0.7-1.4c0-0.6-0.2-1.1-0.7-1.4c-0.5-0.3-1.4-0.5-2.7-0.5h-1.9v-2.6
				l4.3-3.1h-7.4l0.4-4.7H34.9z"/>
		</g>
	</g>
	<g>
		<defs>
			<rect id="SVGID_00000176756631956346980360000011136897547921619633_" width="1141" height="1678"/>
		</defs>
		<clipPath id="SVGID_00000134937384298924273250000012253071786048582021_">
			<use xlink:href="#SVGID_00000176756631956346980360000011136897547921619633_"  overflow="visible"/>
		</clipPath>
		<path clip-path="url(#SVGID_00000134937384298924273250000012253071786048582021_)" fill="#F7EFE2" d="M9,145.8
			c0,10.1,8.7,18.3,19.5,18.3S48,155.9,48,145.8c0-10.1-8.7-18.3-19.5-18.3S9,135.7,9,145.8"/>
	</g>
	<g>
		<g>
			<path d="M35.5,147.2l-0.4,4.4H34v3.2h-5.2v-3.2h-8.2V147l5.4-9.8l5.3,0.3l-5.8,10.1h3.3v-4l5.2-0.2v3.8H35.5z"/>
		</g>
	</g>
	<g>
		<defs>
			<rect id="SVGID_00000039815274611267997240000013066175348275483021_" width="1141" height="1678"/>
		</defs>
		<clipPath id="SVGID_00000158024840234179194360000011581965536797851818_">
			<use xlink:href="#SVGID_00000039815274611267997240000013066175348275483021_"  overflow="visible"/>
		</clipPath>
		<path clip-path="url(#SVGID_00000158024840234179194360000011581965536797851818_)" fill="#F7EFE2" d="M479.3,397.8
			c0,10.1,8.7,18.3,19.5,18.3c10.8,0,19.5-8.2,19.5-18.3c0-10.1-8.7-18.3-19.5-18.3C488,379.5,479.3,387.7,479.3,397.8"/>
	</g>
	<g>
		<g>
			<path d="M504.3,389.4l-0.4,4.4h-7.3l-0.1,1.8h0.7c2.4,0,4.4,0.5,5.7,1.4c1.4,0.9,2.1,2.3,2.1,4.1c0,1.2-0.3,2.2-1,3.1
				c-0.7,0.9-1.6,1.6-2.9,2.1c-1.3,0.5-2.8,0.7-4.6,0.7c-1.2,0-2.3-0.1-3.4-0.3c-1.1-0.2-1.9-0.4-2.6-0.8l0.4-4.5
				c0.6,0.4,1.3,0.7,2.2,0.9c0.9,0.2,1.9,0.3,3,0.3c1,0,1.8-0.1,2.3-0.4c0.5-0.3,0.8-0.7,0.8-1.3c0-0.6-0.2-1-0.7-1.2
				s-1.3-0.4-2.3-0.4h-4.7l0.5-10H504.3z"/>
		</g>
	</g>
	<g>
		<defs>
			<rect id="SVGID_00000178915595880549089590000009395725535912506506_" width="1141" height="1678"/>
		</defs>
		<clipPath id="SVGID_00000134935841251277441990000001636831586517920655_">
			<use xlink:href="#SVGID_00000178915595880549089590000009395725535912506506_"  overflow="visible"/>
		</clipPath>
		<path clip-path="url(#SVGID_00000134935841251277441990000001636831586517920655_)" fill="#F7EFE2" d="M53.9,36.3
			c0,10.1,8.7,18.3,19.5,18.3s19.5-8.2,19.5-18.3c0-10.1-8.7-18.3-19.5-18.3S53.9,26.1,53.9,36.3"/>
	</g>
	<g>
		<g>
			<path d="M79.9,39.6c0,1.3-0.3,2.4-1,3.4c-0.7,1-1.6,1.7-2.7,2.2C75,45.7,73.7,46,72.3,46c-1.4,0-2.7-0.2-3.8-0.7
				c-1.1-0.4-2-1.1-2.6-2c-0.6-0.9-1-1.9-1-3.2c0-0.8,0.1-1.6,0.3-2.5c0.2-0.8,0.6-1.7,1.2-2.7c0.6-0.9,1.3-2,2.4-3.1
				c1-1.1,2.3-2.4,3.9-3.8l5.7,1c-1.2,1-2.2,1.9-3,2.8c-0.9,0.8-1.6,1.6-2.2,2.3c0.4,0,0.7,0,1.1,0.1s0.7,0.1,1,0.2
				c1.3,0.3,2.4,0.9,3.3,1.8C79.5,37,79.9,38.2,79.9,39.6z M74.4,39.7c0-0.8-0.3-1.4-0.9-1.7c-0.6-0.3-1.2-0.4-2-0.4
				c-0.1,0-0.2,0-0.4,0s-0.2,0-0.3,0c-0.1,0.4-0.2,0.7-0.3,1.1c-0.1,0.3-0.1,0.7-0.1,1c0,0.7,0.2,1.3,0.6,1.6
				c0.4,0.4,0.9,0.5,1.4,0.5c0.6,0,1.1-0.2,1.5-0.6C74.2,40.9,74.4,40.4,74.4,39.7z"/>
		</g>
	</g>
	<g>
		<defs>
			<rect id="SVGID_00000029761790511080523230000001211785446992788887_" width="1141" height="1678"/>
		</defs>
		<clipPath id="SVGID_00000074416905263822225440000007493304574122588828_">
			<use xlink:href="#SVGID_00000029761790511080523230000001211785446992788887_"  overflow="visible"/>
		</clipPath>
		<path clip-path="url(#SVGID_00000074416905263822225440000007493304574122588828_)" fill="#F7EFE2" d="M209.9,36.3
			c0,10.1,8.7,18.3,19.5,18.3c10.8,0,19.5-8.2,19.5-18.3c0-10.1-8.7-18.3-19.5-18.3C218.6,17.9,209.9,26.1,209.9,36.3"/>
	</g>
	<g>
		<g>
			<path d="M238.7,27.9V32l-6.6,13.3h-5.7l6.4-13h-8.7l0.4-4.4H238.7z"/>
		</g>
	</g>
	<g>
		<defs>
			<rect id="SVGID_00000116206219083210721040000007680349638716126369_" width="1141" height="1678"/>
		</defs>
		<clipPath id="SVGID_00000090274707000141296490000003295363877813607576_">
			<use xlink:href="#SVGID_00000116206219083210721040000007680349638716126369_"  overflow="visible"/>
		</clipPath>
		<path clip-path="url(#SVGID_00000090274707000141296490000003295363877813607576_)" fill="#F7EFE2" d="M376.9,36.3
			c0,10.1,8.7,18.3,19.5,18.3c10.8,0,19.5-8.2,19.5-18.3c0-10.1-8.7-18.3-19.5-18.3C385.6,17.9,376.9,26.1,376.9,36.3"/>
	</g>
	<g>
		<g>
			<path d="M402.8,40.9c0,1-0.3,1.9-1,2.6c-0.6,0.8-1.5,1.3-2.7,1.8c-1.1,0.4-2.5,0.6-4,0.6c-2.3,0-4-0.4-5.3-1.3
				c-1.3-0.9-1.9-2.1-1.9-3.5c0-0.7,0.2-1.5,0.7-2.2c0.5-0.7,1.2-1.3,2-1.8c-0.5-0.3-0.9-0.6-1.3-1c-0.4-0.4-0.7-0.8-0.9-1.3
				c-0.2-0.5-0.3-1.1-0.3-1.7c0-1,0.3-1.9,0.9-2.7c0.6-0.8,1.5-1.4,2.6-1.8c1.1-0.4,2.4-0.6,3.9-0.6c2.3,0,4,0.4,5.3,1.3
				c1.2,0.9,1.9,2.1,1.9,3.5c0,1.6-0.9,2.9-2.6,3.9c0.5,0.3,0.9,0.6,1.4,1c0.4,0.4,0.7,0.8,1,1.4C402.7,39.6,402.8,40.2,402.8,40.9z
				 M397.2,40.5c0-0.3-0.1-0.5-0.4-0.7c-0.3-0.2-0.6-0.4-1.1-0.6c-0.4-0.2-0.9-0.4-1.5-0.5c-0.3,0.3-0.6,0.6-0.7,0.9
				c-0.1,0.3-0.2,0.6-0.2,0.9c0,0.4,0.2,0.8,0.5,1c0.3,0.3,0.8,0.4,1.5,0.4c0.6,0,1.1-0.1,1.4-0.4C397,41.3,397.2,40.9,397.2,40.5z
				 M397.3,33.5c0-0.4-0.1-0.8-0.4-1c-0.3-0.3-0.7-0.4-1.4-0.4c-0.6,0-1,0.1-1.3,0.4c-0.3,0.2-0.5,0.6-0.5,1c0,0.3,0.1,0.5,0.4,0.7
				c0.2,0.2,0.6,0.4,1,0.6c0.4,0.2,0.9,0.4,1.5,0.6c0.3-0.3,0.5-0.6,0.6-0.9C397.3,34.1,397.3,33.8,397.3,33.5z"/>
		</g>
	</g>
	<g>
		<defs>
			<rect id="SVGID_00000067914841246987069430000011300036583213006271_" width="1141" height="1678"/>
		</defs>
		<clipPath id="SVGID_00000061471187162649896650000011917196915961577919_">
			<use xlink:href="#SVGID_00000067914841246987069430000011300036583213006271_"  overflow="visible"/>
		</clipPath>
		<path clip-path="url(#SVGID_00000061471187162649896650000011917196915961577919_)" fill="#F7EFE2" d="M1084.6,74.1
			c0,10.1,8.7,18.3,19.5,18.3c10.8,0,19.5-8.2,19.5-18.3c0-10.1-8.7-18.3-19.5-18.3C1093.3,55.8,1084.6,64,1084.6,74.1"/>
	</g>
	<g>
		<g>
			<path d="M1095.7,71.8c0-1.3,0.3-2.5,1-3.4c0.7-0.9,1.6-1.7,2.7-2.2c1.1-0.5,2.4-0.8,3.8-0.8c1.4,0,2.7,0.2,3.8,0.7s2,1.1,2.6,2
				c0.6,0.9,1,1.9,1,3.2c0,0.8-0.1,1.6-0.3,2.5c-0.2,0.8-0.6,1.7-1.2,2.7c-0.6,0.9-1.3,2-2.4,3.1c-1,1.1-2.3,2.4-3.9,3.9l-5.7-1
				c1.2-1,2.2-2,3-2.8c0.9-0.8,1.6-1.6,2.2-2.2c-0.4,0-0.7,0-1.1-0.1c-0.4,0-0.7-0.1-1-0.2c-1.3-0.3-2.4-0.9-3.3-1.8
				C1096.1,74.4,1095.7,73.3,1095.7,71.8z M1101.2,71.7c0,0.8,0.3,1.4,0.9,1.7c0.6,0.3,1.2,0.4,2,0.4c0.1,0,0.2,0,0.4,0
				c0.1,0,0.2,0,0.3,0c0.2-0.4,0.3-0.8,0.3-1.1c0.1-0.3,0.1-0.7,0.1-1c0-0.7-0.2-1.3-0.6-1.6c-0.4-0.3-0.9-0.5-1.4-0.5
				c-0.6,0-1.1,0.2-1.5,0.6C1101.3,70.5,1101.2,71,1101.2,71.7z"/>
		</g>
	</g>
	<g>
		<defs>
			<rect id="SVGID_00000107582532935121569750000013131134872193005751_" width="1141" height="1678"/>
		</defs>
		<clipPath id="SVGID_00000048500709889109496880000014887123792560415623_">
			<use xlink:href="#SVGID_00000107582532935121569750000013131134872193005751_"  overflow="visible"/>
		</clipPath>
		<path clip-path="url(#SVGID_00000048500709889109496880000014887123792560415623_)" fill="#F7EFE2" d="M1081.6,237.1
			c0,10.1,8.7,18.3,19.5,18.3c10.8,0,19.5-8.2,19.5-18.3c0-10.1-8.7-18.3-19.5-18.3C1090.3,218.8,1081.6,227,1081.6,237.1"/>
	</g>
	<g>
		<g>
			<path d="M1096.2,243.5h-5.2v-10.3l-4,1.5v-4.4l4-1.7h5.2V243.5z"/>
			<path d="M1113.8,236.1c0,2.5-0.7,4.4-2.1,5.7c-1.4,1.3-3.3,2-5.6,2c-2.4,0-4.2-0.6-5.6-1.9s-2.1-3.2-2.1-5.8
				c0-2.5,0.7-4.4,2.1-5.7c1.4-1.3,3.3-2,5.6-2c2.4,0,4.2,0.6,5.6,1.9C1113.1,231.7,1113.8,233.6,1113.8,236.1z M1108.5,236.2
				c0-1.4-0.2-2.4-0.6-2.9c-0.4-0.5-1-0.8-1.8-0.8s-1.4,0.3-1.8,0.8c-0.4,0.6-0.6,1.5-0.6,2.9c0,1.4,0.2,2.3,0.6,2.9
				c0.4,0.6,1,0.8,1.8,0.8s1.4-0.3,1.8-0.8C1108.3,238.5,1108.5,237.5,1108.5,236.2z"/>
		</g>
	</g>
	<g>
		<defs>
			<rect id="SVGID_00000134248218484019844610000012360251708121173666_" width="1141" height="1678"/>
		</defs>
		<clipPath id="SVGID_00000134229886119533241250000005904996786746725004_">
			<use xlink:href="#SVGID_00000134248218484019844610000012360251708121173666_"  overflow="visible"/>
		</clipPath>
		<path clip-path="url(#SVGID_00000134229886119533241250000005904996786746725004_)" fill="#F7EFE2" d="M1081.6,397.1
			c0,10.1,8.7,18.3,19.5,18.3c10.8,0,19.5-8.2,19.5-18.3c0-10.1-8.7-18.3-19.5-18.3C1090.3,378.8,1081.6,387,1081.6,397.1"/>
	</g>
	<g>
		<g>
			<path d="M1099.2,406.5h-5.2v-10.3l-4,1.5v-4.4l4-1.7h5.2V406.5z"/>
			<path d="M1110.7,406.5h-5.2v-10.3l-4,1.5v-4.4l4-1.7h5.2V406.5z"/>
		</g>
	</g>
	<g>
		<defs>
			<rect id="SVGID_00000149348260697964468810000009080256466227913376_" width="1141" height="1678"/>
		</defs>
		<clipPath id="SVGID_00000057862088415810870300000018355939694922975650_">
			<use xlink:href="#SVGID_00000149348260697964468810000009080256466227913376_"  overflow="visible"/>
		</clipPath>
		
			<rect x="1069.7" y="791.4" clip-path="url(#SVGID_00000057862088415810870300000018355939694922975650_)" fill="#FFC9B1" width="71.3" height="137.6"/>
		
			<rect x="1069.7" y="631.3" clip-path="url(#SVGID_00000057862088415810870300000018355939694922975650_)" fill="#FFC9B1" width="72.3" height="149.9"/>
		
			<rect x="1069.7" y="471.3" clip-path="url(#SVGID_00000057862088415810870300000018355939694922975650_)" fill="#FFC9B1" width="71.3" height="149.9"/>
		<path clip-path="url(#SVGID_00000057862088415810870300000018355939694922975650_)" fill="#F7EFE2" d="M1084.6,543.1
			c0,10.1,8.7,18.3,19.5,18.3c10.8,0,19.5-8.2,19.5-18.3c0-10.1-8.7-18.3-19.5-18.3C1093.3,524.8,1084.6,533,1084.6,543.1"/>
	</g>
	<g>
		<g>
			<path d="M1099.2,549.5h-5.2v-10.3l-4,1.5v-4.4l4-1.7h5.2V549.5z"/>
			<path d="M1115.5,539.4c0,0.7-0.2,1.4-0.6,2.1c-0.4,0.7-1,1.3-1.9,1.9c-0.9,0.6-2,1.2-3.4,1.7h6.8l-0.4,4.4h-13.9v-4.2
				c1.6-0.7,2.9-1.3,4-1.8c1-0.5,1.8-0.9,2.4-1.3c0.5-0.4,0.9-0.7,1.1-1c0.2-0.3,0.3-0.6,0.3-0.9c0-0.5-0.2-0.9-0.6-1.1
				s-1.1-0.4-2.2-0.4c-0.5,0-1.1,0-1.6,0.1c-0.5,0.1-1,0.2-1.5,0.4c-0.5,0.1-0.9,0.3-1.3,0.5l-0.2-4.3c0.8-0.4,1.7-0.6,2.7-0.8
				c1-0.2,2.1-0.2,3.2-0.2c2.4,0,4.2,0.4,5.4,1.3C1115,536.7,1115.5,537.9,1115.5,539.4z"/>
		</g>
	</g>
	<g>
		<defs>
			<rect id="SVGID_00000173131819563558784420000001470011780888586880_" width="1141" height="1678"/>
		</defs>
		<clipPath id="SVGID_00000172401457455272354450000010784583547006322071_">
			<use xlink:href="#SVGID_00000173131819563558784420000001470011780888586880_"  overflow="visible"/>
		</clipPath>
		<path clip-path="url(#SVGID_00000172401457455272354450000010784583547006322071_)" fill="#F7EFE2" d="M1081.6,706.1
			c0,10.1,8.7,18.3,19.5,18.3c10.8,0,19.5-8.2,19.5-18.3c0-10.1-8.7-18.3-19.5-18.3C1090.3,687.8,1081.6,696,1081.6,706.1"/>
	</g>
	<g>
		<g>
			<path d="M1096.2,712.5h-5.2v-10.3l-4,1.5v-4.4l4-1.7h5.2V712.5z"/>
			<path d="M1112.3,697.8v4.1l-4,2.8c1.4,0.3,2.5,0.8,3.4,1.6c0.9,0.8,1.3,1.9,1.3,3.2c0,1.1-0.3,2.1-1,3c-0.7,0.9-1.6,1.6-2.8,2.1
				s-2.7,0.8-4.4,0.8c-1.3,0-2.5-0.1-3.6-0.3c-1-0.2-1.8-0.5-2.4-0.7l0.4-4.5c0.6,0.4,1.3,0.7,2.2,0.9c0.9,0.2,1.9,0.3,3,0.3
				c1,0,1.8-0.1,2.3-0.4c0.5-0.3,0.7-0.7,0.7-1.3c0-0.6-0.2-1-0.7-1.3c-0.5-0.3-1.4-0.5-2.7-0.5h-1.9v-2.4l4.3-3h-7.4l0.4-4.4
				H1112.3z"/>
		</g>
	</g>
	<g>
		<defs>
			<rect id="SVGID_00000011013244852662653900000005708809353916490918_" width="1141" height="1678"/>
		</defs>
		<clipPath id="SVGID_00000018917644225242215410000007108032807475105925_">
			<use xlink:href="#SVGID_00000011013244852662653900000005708809353916490918_"  overflow="visible"/>
		</clipPath>
		<path clip-path="url(#SVGID_00000018917644225242215410000007108032807475105925_)" fill="#F7EFE2" d="M1081.6,866.1
			c0,10.1,8.7,18.3,19.5,18.3c10.8,0,19.5-8.2,19.5-18.3c0-10.1-8.7-18.3-19.5-18.3C1090.3,847.8,1081.6,856,1081.6,866.1"/>
	</g>
	<g>
		<g>
			<path d="M1096.2,872.5h-5.2v-10.3l-4,1.5v-4.4l4-1.7h5.2V872.5z"/>
			<path d="M1113.4,867.6l-0.4,4.4h-1.1v3.2h-5.2V872h-8.2v-4.7l5.4-9.8l5.3,0.3l-5.8,10.1h3.3v-4l5.2-0.2v3.8H1113.4z"/>
		</g>
	</g>
	<g>
		<defs>
			<rect id="SVGID_00000153674751356607169210000000028950758149807542_" width="1141" height="1678"/>
		</defs>
		<clipPath id="SVGID_00000005973038895033776000000003006955155448046513_">
			<use xlink:href="#SVGID_00000153674751356607169210000000028950758149807542_"  overflow="visible"/>
		</clipPath>
		
			<rect x="1069.7" y="1258.4" clip-path="url(#SVGID_00000005973038895033776000000003006955155448046513_)" fill="#F4B609" width="71.3" height="137.6"/>
		
			<rect x="1069.7" y="1098.3" clip-path="url(#SVGID_00000005973038895033776000000003006955155448046513_)" fill="#F4B609" width="71.3" height="149.9"/>
		
			<rect x="1069.7" y="938.3" clip-path="url(#SVGID_00000005973038895033776000000003006955155448046513_)" fill="#F4B609" width="71.3" height="149.9"/>
		<path clip-path="url(#SVGID_00000005973038895033776000000003006955155448046513_)" fill="#F7EFE2" d="M1084.6,1010.1
			c0,10.1,8.7,18.3,19.5,18.3c10.8,0,19.5-8.2,19.5-18.3c0-10.1-8.7-18.3-19.5-18.3C1093.3,991.8,1084.6,1000,1084.6,1010.1"/>
	</g>
	<g>
		<g>
			<path d="M1099.2,1016.5h-5.2v-10.3l-4,1.5v-4.4l4-1.7h5.2V1016.5z"/>
			<path d="M1115.5,1001.8l-0.4,4.4h-7.3l-0.1,1.8h0.7c2.4,0,4.4,0.5,5.7,1.4c1.4,0.9,2.1,2.3,2.1,4.1c0,1.2-0.3,2.2-1,3.1
				c-0.7,0.9-1.6,1.6-2.9,2.1c-1.3,0.5-2.8,0.7-4.6,0.7c-1.2,0-2.3-0.1-3.4-0.3c-1.1-0.2-1.9-0.4-2.6-0.8l0.4-4.5
				c0.6,0.4,1.3,0.7,2.2,0.9c0.9,0.2,1.9,0.3,3,0.3c1,0,1.8-0.1,2.3-0.4c0.5-0.3,0.8-0.7,0.8-1.3c0-0.6-0.2-1-0.7-1.2
				s-1.3-0.4-2.3-0.4h-4.7l0.5-10H1115.5z"/>
		</g>
	</g>
	<g>
		<defs>
			<rect id="SVGID_00000111909344907194849070000004227463238915551931_" width="1141" height="1678"/>
		</defs>
		<clipPath id="SVGID_00000142174617428545057500000012703623665019609736_">
			<use xlink:href="#SVGID_00000111909344907194849070000004227463238915551931_"  overflow="visible"/>
		</clipPath>
		<path clip-path="url(#SVGID_00000142174617428545057500000012703623665019609736_)" fill="#F7EFE2" d="M1081.6,1173.1
			c0,10.1,8.7,18.3,19.5,18.3c10.8,0,19.5-8.2,19.5-18.3s-8.7-18.3-19.5-18.3C1090.3,1154.8,1081.6,1163,1081.6,1173.1"/>
	</g>
	<g>
		<g>
			<path d="M1096.2,1179.5h-5.2v-10.3l-4,1.5v-4.4l4-1.7h5.2V1179.5z"/>
			<path d="M1113.5,1173.5c0,1.3-0.3,2.4-1,3.4c-0.7,1-1.6,1.7-2.7,2.2c-1.1,0.5-2.4,0.8-3.8,0.8s-2.7-0.2-3.8-0.7
				c-1.1-0.4-2-1.1-2.6-2s-1-1.9-1-3.2c0-0.8,0.1-1.6,0.3-2.5c0.2-0.8,0.6-1.7,1.2-2.7c0.6-0.9,1.3-2,2.4-3.1c1-1.1,2.3-2.4,3.9-3.8
				l5.7,1c-1.2,1-2.2,1.9-3,2.8s-1.6,1.6-2.2,2.3c0.4,0,0.7,0,1.1,0.1s0.7,0.1,1,0.2c1.3,0.3,2.4,0.9,3.3,1.8
				C1113.1,1170.9,1113.5,1172,1113.5,1173.5z M1108,1173.6c0-0.8-0.3-1.4-0.9-1.7c-0.6-0.3-1.2-0.4-2-0.4c-0.1,0-0.2,0-0.4,0
				c-0.1,0-0.2,0-0.3,0c-0.1,0.4-0.2,0.7-0.3,1.1c-0.1,0.3-0.1,0.7-0.1,1c0,0.7,0.2,1.3,0.6,1.6c0.4,0.4,0.9,0.5,1.4,0.5
				c0.6,0,1.1-0.2,1.5-0.6C1107.8,1174.8,1108,1174.3,1108,1173.6z"/>
		</g>
	</g>
	<g>
		<defs>
			<rect id="SVGID_00000163053825758886860290000017663167136758596504_" width="1141" height="1678"/>
		</defs>
		<clipPath id="SVGID_00000165948403057052173980000008421139314534715527_">
			<use xlink:href="#SVGID_00000163053825758886860290000017663167136758596504_"  overflow="visible"/>
		</clipPath>
		<path clip-path="url(#SVGID_00000165948403057052173980000008421139314534715527_)" fill="#F7EFE2" d="M1081.6,1333.1
			c0,10.1,8.7,18.3,19.5,18.3c10.8,0,19.5-8.2,19.5-18.3s-8.7-18.3-19.5-18.3C1090.3,1314.8,1081.6,1323,1081.6,1333.1"/>
	</g>
	<g>
		<g>
			<path d="M1096.2,1339.5h-5.2v-10.3l-4,1.5v-4.4l4-1.7h5.2V1339.5z"/>
			<path d="M1113.1,1324.8v4.1l-6.6,13.3h-5.7l6.4-13h-8.7l0.4-4.4H1113.1z"/>
		</g>
	</g>
	<g>
		<defs>
			<rect id="SVGID_00000171682088305700137300000011250483935727961263_" width="1141" height="1678"/>
		</defs>
		<clipPath id="SVGID_00000114762234086716364930000014353471530156078476_">
			<use xlink:href="#SVGID_00000171682088305700137300000011250483935727961263_"  overflow="visible"/>
		</clipPath>
		
			<rect x="1069.7" y="1408.4" clip-path="url(#SVGID_00000114762234086716364930000014353471530156078476_)" fill="#F4B609" width="71.3" height="137.6"/>
		<path clip-path="url(#SVGID_00000114762234086716364930000014353471530156078476_)" fill="#F7EFE2" d="M1081.6,1483.1
			c0,10.1,8.7,18.3,19.5,18.3c10.8,0,19.5-8.2,19.5-18.3s-8.7-18.3-19.5-18.3C1090.3,1464.8,1081.6,1473,1081.6,1483.1"/>
	</g>
	<g>
		<g>
			<path d="M1096.2,1489.5h-5.2v-10.3l-4,1.5v-4.4l4-1.7h5.2V1489.5z"/>
			<path d="M1113.5,1484.8c0,1-0.3,1.9-1,2.6s-1.5,1.3-2.7,1.8c-1.1,0.4-2.5,0.6-4,0.6c-2.3,0-4-0.4-5.3-1.3
				c-1.3-0.9-1.9-2.1-1.9-3.5c0-0.7,0.2-1.5,0.7-2.2c0.5-0.7,1.2-1.3,2-1.8c-0.5-0.3-0.9-0.6-1.3-1c-0.4-0.4-0.7-0.8-0.9-1.3
				c-0.2-0.5-0.3-1.1-0.3-1.7c0-1,0.3-1.9,0.9-2.7s1.5-1.4,2.6-1.8c1.1-0.4,2.4-0.6,3.9-0.6c2.3,0,4,0.4,5.3,1.3
				c1.2,0.9,1.9,2.1,1.9,3.5c0,1.6-0.9,2.9-2.6,3.9c0.5,0.3,1,0.6,1.4,1c0.4,0.4,0.7,0.8,1,1.4
				C1113.3,1483.5,1113.5,1484.1,1113.5,1484.8z M1107.8,1484.4c0-0.3-0.1-0.5-0.4-0.7c-0.3-0.2-0.6-0.4-1.1-0.6
				c-0.4-0.2-0.9-0.4-1.5-0.5c-0.3,0.3-0.6,0.6-0.7,0.9c-0.1,0.3-0.2,0.6-0.2,0.9c0,0.4,0.2,0.8,0.5,1s0.8,0.4,1.5,0.4
				c0.6,0,1.1-0.1,1.4-0.4C1107.7,1485.2,1107.8,1484.8,1107.8,1484.4z M1108,1477.4c0-0.4-0.1-0.8-0.4-1c-0.3-0.3-0.7-0.4-1.4-0.4
				c-0.6,0-1,0.1-1.3,0.4c-0.3,0.2-0.5,0.6-0.5,1c0,0.3,0.1,0.5,0.4,0.7c0.2,0.2,0.6,0.4,1,0.6c0.4,0.2,0.9,0.4,1.5,0.6
				c0.3-0.3,0.5-0.6,0.6-0.9C1107.9,1478,1108,1477.7,1108,1477.4z"/>
		</g>
	</g>
	<g>
		<defs>
			<rect id="SVGID_00000047767716276140402120000000098951768241097888_" width="1141" height="1678"/>
		</defs>
		<clipPath id="SVGID_00000062189296385526413100000000294608633847287985_">
			<use xlink:href="#SVGID_00000047767716276140402120000000098951768241097888_"  overflow="visible"/>
		</clipPath>
		<path clip-path="url(#SVGID_00000062189296385526413100000000294608633847287985_)" fill="#EAAEEC" d="M260.6,1595.1
			c0,10.1,8.7,18.3,19.5,18.3c10.8,0,19.5-8.2,19.5-18.3s-8.7-18.3-19.5-18.3C269.3,1576.8,260.6,1585,260.6,1595.1"/>
	</g>
	<g>
		<g>
			<path d="M275.2,1601.5H270v-10.3l-4,1.5v-4.4l4-1.7h5.2V1601.5z"/>
			<path d="M277.6,1592.8c0-1.3,0.3-2.5,1-3.4c0.7-0.9,1.6-1.7,2.7-2.2c1.1-0.5,2.4-0.8,3.8-0.8s2.7,0.2,3.8,0.7
				c1.1,0.4,2,1.1,2.6,2s1,1.9,1,3.2c0,0.8-0.1,1.6-0.3,2.5c-0.2,0.8-0.6,1.7-1.2,2.7c-0.6,0.9-1.4,2-2.4,3.1s-2.3,2.4-3.9,3.9
				l-5.7-1c1.2-1,2.2-2,3-2.8c0.9-0.8,1.6-1.6,2.2-2.2c-0.4,0-0.7,0-1.1-0.1c-0.4,0-0.7-0.1-1-0.2c-1.3-0.3-2.4-0.9-3.3-1.8
				C278,1595.4,277.6,1594.3,277.6,1592.8z M283,1592.7c0,0.8,0.3,1.4,0.9,1.7c0.6,0.3,1.2,0.4,2,0.4c0.1,0,0.2,0,0.4,0s0.2,0,0.3,0
				c0.2-0.4,0.3-0.8,0.3-1.1s0.1-0.7,0.1-1c0-0.7-0.2-1.3-0.6-1.6c-0.4-0.3-0.9-0.5-1.4-0.5c-0.6,0-1.1,0.2-1.5,0.6
				C283.2,1591.5,283,1592,283,1592.7z"/>
		</g>
	</g>
	<g>
		<defs>
			<rect id="SVGID_00000036937643669994629090000009103706872136205744_" width="1141" height="1678"/>
		</defs>
		<clipPath id="SVGID_00000081649711633194969510000002530583384265439138_">
			<use xlink:href="#SVGID_00000036937643669994629090000009103706872136205744_"  overflow="visible"/>
		</clipPath>
		<path clip-path="url(#SVGID_00000081649711633194969510000002530583384265439138_)" fill="#EAAEEC" d="M260.6,1393.1
			c0,10.1,8.7,18.3,19.5,18.3c10.8,0,19.5-8.2,19.5-18.3s-8.7-18.3-19.5-18.3C269.3,1374.8,260.6,1383,260.6,1393.1"/>
	</g>
	<g>
		<g>
			<path d="M279.7,1389.4c0,0.7-0.2,1.4-0.6,2.1c-0.4,0.7-1,1.3-1.9,1.9c-0.9,0.6-2,1.2-3.4,1.7h6.8l-0.4,4.4h-13.9v-4.2
				c1.6-0.7,2.9-1.3,4-1.8c1-0.5,1.8-0.9,2.4-1.3c0.5-0.4,0.9-0.7,1.1-1s0.3-0.6,0.3-0.9c0-0.5-0.2-0.9-0.6-1.1
				c-0.4-0.3-1.1-0.4-2.2-0.4c-0.5,0-1.1,0-1.6,0.1s-1,0.2-1.5,0.4s-0.9,0.3-1.3,0.5l-0.2-4.3c0.8-0.4,1.7-0.6,2.7-0.8
				c1-0.2,2.1-0.2,3.2-0.2c2.4,0,4.2,0.4,5.4,1.3S279.7,1387.9,279.7,1389.4z"/>
			<path d="M296.9,1392.1c0,2.5-0.7,4.4-2.1,5.7c-1.4,1.3-3.3,2-5.6,2s-4.2-0.6-5.6-1.9c-1.4-1.3-2.1-3.2-2.1-5.8
				c0-2.5,0.7-4.4,2.1-5.7c1.4-1.3,3.3-2,5.6-2s4.2,0.6,5.6,1.9C296.2,1387.7,296.9,1389.6,296.9,1392.1z M291.6,1392.2
				c0-1.4-0.2-2.4-0.6-2.9s-1-0.8-1.8-0.8s-1.4,0.3-1.8,0.8c-0.4,0.6-0.6,1.5-0.6,2.9c0,1.4,0.2,2.3,0.6,2.9c0.4,0.6,1,0.8,1.8,0.8
				s1.4-0.3,1.8-0.8C291.4,1394.5,291.6,1393.5,291.6,1392.2z"/>
		</g>
	</g>
	<g>
		<g>
			<path d="M28.9,1307.8c-0.5,0.3-1.2,0.6-2,0.8s-1.6,0.3-2.5,0.3c-1.7,0-3.2-0.3-4.5-1c-1.2-0.7-2.2-1.6-2.9-2.8
				c-0.7-1.2-1-2.5-1-4c0-1.5,0.3-2.9,1-4c0.7-1.2,1.6-2.1,2.8-2.8c1.2-0.7,2.5-1,4.1-1c1.1,0,2,0.1,2.9,0.3s1.6,0.6,2.2,1l-1.4,3.8
				c-0.4-0.4-0.9-0.7-1.5-0.9s-1.2-0.3-1.9-0.3c-0.7,0-1.4,0.1-2,0.4c-0.6,0.3-1.1,0.7-1.4,1.3c-0.3,0.6-0.5,1.3-0.5,2.1
				c0,0.8,0.2,1.4,0.5,2c0.3,0.6,0.8,1,1.5,1.4c0.6,0.3,1.4,0.5,2.2,0.5c0.9,0,1.7-0.1,2.4-0.3c0.7-0.2,1.3-0.5,1.7-0.8L28.9,1307.8
				z"/>
			<path d="M45.4,1308.6h-4.5l-1-3.2h-4.7l-1,3.2h-4.3l5.3-15.2h5L45.4,1308.6z M38.8,1302.1l-0.7-2.3c-0.1-0.4-0.2-0.7-0.3-1
				c-0.1-0.3-0.1-0.6-0.2-1h-0.1c-0.1,0.3-0.1,0.6-0.2,1s-0.2,0.7-0.3,1l-0.7,2.3H38.8z"/>
			<path d="M57.2,1294l-0.8,3.8c-0.3-0.2-0.6-0.3-1.1-0.4c-0.5-0.1-0.9-0.2-1.4-0.3c-0.5-0.1-0.9-0.1-1.4-0.1
				c-0.6,0-1.1,0.1-1.4,0.2c-0.3,0.1-0.5,0.4-0.5,0.7c0,0.3,0.1,0.5,0.4,0.6c0.3,0.1,0.6,0.3,1,0.4c0.4,0.1,0.9,0.2,1.4,0.4
				c0.5,0.1,1,0.3,1.6,0.5c0.5,0.2,1,0.5,1.4,0.8s0.8,0.8,1,1.3c0.3,0.5,0.4,1.2,0.4,2c0,1.5-0.6,2.8-1.7,3.7
				c-1.1,0.9-2.8,1.4-4.8,1.4c-1,0-1.9-0.1-2.7-0.2s-1.6-0.4-2.1-0.7l0.3-4c0.3,0.2,0.7,0.4,1.2,0.6c0.5,0.2,1.1,0.3,1.7,0.4
				c0.6,0.1,1.2,0.2,1.7,0.2c0.7,0,1.2-0.1,1.6-0.2c0.3-0.1,0.5-0.4,0.5-0.8c0-0.3-0.1-0.5-0.4-0.6c-0.3-0.2-0.6-0.3-1-0.4
				c-0.4-0.1-0.9-0.2-1.4-0.4c-0.5-0.1-1-0.3-1.6-0.5c-0.5-0.2-1-0.5-1.4-0.8c-0.4-0.3-0.8-0.8-1-1.3c-0.3-0.5-0.4-1.2-0.4-1.9
				c0-1,0.3-1.9,0.8-2.6c0.5-0.7,1.2-1.3,2.1-1.7c0.9-0.4,2-0.6,3.3-0.6c0.5,0,1,0,1.6,0.1c0.6,0.1,1.2,0.1,1.7,0.3
				C56.4,1293.7,56.8,1293.8,57.2,1294z"/>
			<path d="M74.1,1308.6h-4.5l-1-3.2h-4.7l-1,3.2h-4.3l5.3-15.2h5L74.1,1308.6z M67.5,1302.1l-0.7-2.3c-0.1-0.4-0.2-0.7-0.3-1
				c-0.1-0.3-0.1-0.6-0.2-1h-0.1c-0.1,0.3-0.1,0.6-0.2,1s-0.2,0.7-0.3,1l-0.7,2.3H67.5z"/>
			<path d="M92.8,1307.8c-0.5,0.3-1.2,0.6-2,0.8s-1.6,0.3-2.5,0.3c-1.7,0-3.2-0.3-4.5-1c-1.2-0.7-2.2-1.6-2.9-2.8
				c-0.7-1.2-1-2.5-1-4c0-1.5,0.3-2.9,1-4c0.7-1.2,1.6-2.1,2.8-2.8c1.2-0.7,2.5-1,4.1-1c1.1,0,2,0.1,2.9,0.3s1.6,0.6,2.2,1l-1.4,3.8
				c-0.4-0.4-0.9-0.7-1.5-0.9s-1.2-0.3-1.9-0.3c-0.7,0-1.4,0.1-2,0.4c-0.6,0.3-1.1,0.7-1.4,1.3c-0.3,0.6-0.5,1.3-0.5,2.1
				c0,0.8,0.2,1.4,0.5,2c0.3,0.6,0.8,1,1.5,1.4c0.6,0.3,1.4,0.5,2.2,0.5c0.9,0,1.7-0.1,2.4-0.3c0.7-0.2,1.3-0.5,1.7-0.8L92.8,1307.8
				z"/>
			<path d="M102,1293.2c1.5,0,2.9,0.3,4.1,1c1.2,0.7,2.2,1.6,2.9,2.8c0.7,1.2,1,2.5,1,4c0,1.5-0.3,2.8-1,4c-0.7,1.2-1.6,2.1-2.9,2.8
				c-1.2,0.7-2.6,1-4.1,1c-1.5,0-2.9-0.3-4.1-1c-1.2-0.7-2.2-1.6-2.9-2.8c-0.7-1.2-1-2.5-1-4c0-1.5,0.3-2.9,1-4
				c0.7-1.2,1.6-2.1,2.9-2.8C99.1,1293.5,100.5,1293.2,102,1293.2z M102,1305c0.7,0,1.3-0.2,1.9-0.5c0.5-0.3,1-0.8,1.3-1.4
				s0.5-1.3,0.5-2.1c0-0.8-0.2-1.5-0.5-2.1s-0.7-1.1-1.3-1.4c-0.5-0.3-1.2-0.5-1.9-0.5c-0.7,0-1.3,0.2-1.9,0.5
				c-0.6,0.3-1,0.8-1.3,1.4s-0.5,1.3-0.5,2.1c0,0.8,0.2,1.5,0.5,2.1s0.7,1.1,1.3,1.4C100.7,1304.9,101.3,1305,102,1305z"/>
			<path d="M125.5,1293.4v15.2h-3.6l-4.7-6.6c-0.2-0.3-0.4-0.6-0.6-1c-0.2-0.3-0.4-0.7-0.6-1h-0.1v8.6h-4.1v-15.2h4.1l4.2,5.9
				c0.2,0.3,0.4,0.6,0.6,0.9s0.4,0.7,0.6,1h0.1v-7.9H125.5z"/>
			<path d="M142.3,1301c0,1.4-0.3,2.7-1,3.9c-0.7,1.1-1.6,2-2.9,2.7c-1.3,0.7-2.7,1-4.5,1h-5.8v-15.2h5.8c1.7,0,3.2,0.3,4.5,1
				c1.2,0.7,2.2,1.6,2.9,2.7C141.9,1298.2,142.3,1299.5,142.3,1301z M137.9,1301c0-0.8-0.2-1.5-0.5-2.1c-0.3-0.6-0.8-1.1-1.4-1.4
				c-0.6-0.3-1.3-0.5-2.1-0.5h-1.6v8h1.6c0.8,0,1.5-0.2,2.1-0.5c0.6-0.3,1-0.8,1.4-1.4C137.7,1302.5,137.9,1301.8,137.9,1301z"/>
			<path d="M154.7,1293.4l-0.3,3.8h-6v1.9h4.9v3.7h-4.9v2h6.5v3.8h-10.7v-15.2H154.7z"/>
			<path d="M156.7,1308.6v-15.2h4.2v11.3h6l-0.3,3.8H156.7z"/>
			<path d="M168.5,1308.6v-15.2h4.2v11.3h6l-0.3,3.8H168.5z"/>
		</g>
	</g>
</g>
<g id="mascara_de_numeros">
	<rect x="253.7" y="1363.9" fill="#F7EFE2" width="61.3" height="57"/>
	<rect x="253.7" y="1568.2" fill="#F7EFE2" width="61.3" height="57"/>
	<rect x="1074.6" y="1454.3" fill="#F4B609" width="61.3" height="57"/>
	<rect x="1074.6" y="1298.6" fill="#F4B609" width="61.3" height="57"/>
	<rect x="1074.6" y="1148.7" fill="#F4B609" width="61.3" height="57"/>
	<rect x="1074.6" y="978.2" fill="#F4B609" width="61.3" height="57"/>
	<rect x="1074.6" y="835.1" fill="#B2D8D8" width="61.3" height="57"/>
	<rect x="1074.6" y="684.6" fill="#FFC9B1" width="61.3" height="57"/>
	<rect x="1074.6" y="504" fill="#FFC9B1" width="61.3" height="57"/>
	<rect x="1074.6" y="365.3" fill="#FE5001" width="61.3" height="57"/>
	<rect x="1074.6" y="207.5" fill="#FE5001" width="61.3" height="57"/>
	<rect x="1074.6" y="51.3" fill="#FE5001" width="61.3" height="57"/>
	<rect x="459.7" y="368.2" fill="#FFC9B1" width="61.3" height="57"/>
	<rect x="-0.1" y="664.7" fill="#FFC9B1" width="61.3" height="57"/>
	<rect x="-0.1" y="447.1" fill="#FFC9B1" width="61.3" height="57"/>
	<rect x="-0.1" y="270.7" fill="#FFC9B1" width="61.3" height="57"/>
	<rect x="-0.1" y="120.3" fill="#FFC9B1" width="61.3" height="57"/>
	<rect x="44.8" y="10.7" fill="#FFC9B1" width="61.3" height="57"/>
	<rect x="200.8" y="10.7" fill="#FFC9B1" width="61.3" height="57"/>
	<rect x="367.8" y="10.7" fill="#FFC9B1" width="61.3" height="57"/>
</g>
</svg>
